# Blender 4.3.2
# www.blender.org
mtllib Coin.mtl
o Circle
v 0.000000 -0.000000 -1.000000
v 0.000000 0.195090 -0.980785
v 0.000000 0.382683 -0.923880
v 0.000000 0.555570 -0.831470
v 0.000000 0.707107 -0.707107
v 0.000000 0.831470 -0.555570
v 0.000000 0.923880 -0.382683
v 0.000000 0.980785 -0.195090
v 0.000000 1.000000 0.000000
v 0.000000 0.980785 0.195090
v 0.000000 0.923880 0.382683
v 0.000000 0.831470 0.555570
v 0.000000 0.707107 0.707107
v 0.000000 0.555570 0.831470
v 0.000000 0.382683 0.923880
v 0.000000 0.195090 0.980785
v 0.000000 -0.000000 1.000000
v 0.000000 -0.195090 0.980785
v 0.000000 -0.382683 0.923880
v 0.000000 -0.555570 0.831470
v 0.000000 -0.707107 0.707107
v 0.000000 -0.831470 0.555570
v 0.000000 -0.923880 0.382683
v 0.000000 -0.980785 0.195090
v 0.000000 -1.000000 0.000000
v 0.000000 -0.980785 -0.195090
v 0.000000 -0.923880 -0.382683
v 0.000000 -0.831470 -0.555570
v 0.000000 -0.707107 -0.707107
v 0.000000 -0.555570 -0.831470
v 0.000000 -0.382683 -0.923880
v 0.000000 -0.195090 -0.980785
v 0.131075 -0.000000 -1.000000
v 0.131075 0.195090 -0.980785
v 0.131075 0.382683 -0.923880
v 0.131074 0.555570 -0.831470
v 0.131074 0.707107 -0.707107
v 0.131074 0.831470 -0.555570
v 0.131074 0.923880 -0.382683
v 0.131074 0.980785 -0.195090
v 0.131074 1.000000 0.000000
v 0.131074 0.980785 0.195090
v 0.131074 0.923880 0.382683
v 0.131074 0.831470 0.555570
v 0.131074 0.707107 0.707107
v 0.131074 0.555570 0.831470
v 0.131075 0.382683 0.923880
v 0.131075 0.195090 0.980785
v 0.131075 -0.000000 1.000000
v 0.131075 -0.195090 0.980785
v 0.131075 -0.382683 0.923880
v 0.131075 -0.555570 0.831470
v 0.131075 -0.707107 0.707107
v 0.131075 -0.831470 0.555570
v 0.131075 -0.923880 0.382683
v 0.131075 -0.980785 0.195090
v 0.131075 -1.000000 0.000000
v 0.131075 -0.980785 -0.195090
v 0.131075 -0.923880 -0.382683
v 0.131075 -0.831470 -0.555570
v 0.131075 -0.707107 -0.707107
v 0.131075 -0.555570 -0.831470
v 0.131075 -0.382683 -0.923880
v 0.131075 -0.195090 -0.980785
v 0.131075 -0.000000 -0.848423
v 0.131075 0.165519 -0.832121
v 0.131075 0.324678 -0.783841
v 0.131075 0.471359 -0.705438
v 0.131075 0.599926 -0.599926
v 0.131075 0.705438 -0.471359
v 0.131075 0.783841 -0.324678
v 0.131075 0.832121 -0.165519
v 0.131075 0.848423 -0.000000
v 0.131075 0.832121 0.165519
v 0.131075 0.783841 0.324678
v 0.131075 0.705438 0.471359
v 0.131075 0.599926 0.599926
v 0.131075 0.471359 0.705438
v 0.131075 0.324678 0.783841
v 0.131075 0.165519 0.832121
v 0.131075 -0.000000 0.848423
v 0.131075 -0.165519 0.832121
v 0.131075 -0.324678 0.783841
v 0.131075 -0.471359 0.705438
v 0.131075 -0.599926 0.599926
v 0.131075 -0.705438 0.471359
v 0.131075 -0.783841 0.324678
v 0.131075 -0.832121 0.165519
v 0.131075 -0.848423 -0.000000
v 0.131075 -0.832121 -0.165519
v 0.131075 -0.783841 -0.324678
v 0.131075 -0.705438 -0.471359
v 0.131075 -0.599926 -0.599926
v 0.131075 -0.471359 -0.705438
v 0.131075 -0.324678 -0.783841
v 0.131075 -0.165519 -0.832121
v 0.041737 -0.000000 -0.848423
v 0.041737 0.165519 -0.832121
v 0.041737 0.324678 -0.783841
v 0.041737 0.471359 -0.705438
v 0.041737 0.599926 -0.599926
v 0.041737 0.705438 -0.471359
v 0.041737 0.783841 -0.324678
v 0.041737 0.832121 -0.165519
v 0.041737 0.848423 -0.000000
v 0.041737 0.832121 0.165519
v 0.041737 0.783841 0.324678
v 0.041737 0.705438 0.471359
v 0.041737 0.599926 0.599926
v 0.041737 0.471359 0.705438
v 0.041737 0.324678 0.783841
v 0.041737 0.165519 0.832121
v 0.041737 -0.000000 0.848423
v 0.041737 -0.165519 0.832121
v 0.041737 -0.324678 0.783841
v 0.041737 -0.471359 0.705438
v 0.041737 -0.599926 0.599926
v 0.041737 -0.705438 0.471359
v 0.041737 -0.783841 0.324678
v 0.041737 -0.832121 0.165519
v 0.041737 -0.848423 -0.000000
v 0.041737 -0.832121 -0.165519
v 0.041737 -0.783841 -0.324678
v 0.041737 -0.705438 -0.471359
v 0.041737 -0.599926 -0.599926
v 0.041737 -0.471359 -0.705438
v 0.041737 -0.324678 -0.783841
v 0.041737 -0.165519 -0.832121
v 0.128198 -0.000000 -0.177562
v 0.128198 0.034641 -0.174150
v 0.128198 0.067950 -0.164046
v 0.128198 0.098648 -0.147637
v 0.128198 0.125555 -0.125555
v 0.128198 0.147637 -0.098648
v 0.128198 0.164046 -0.067950
v 0.128198 0.174150 -0.034641
v 0.128198 0.177562 -0.000000
v 0.128198 0.174150 0.034641
v 0.128198 0.164046 0.067950
v 0.128198 0.147637 0.098648
v 0.128198 0.125555 0.125555
v 0.128198 0.098648 0.147637
v 0.128198 0.067950 0.164046
v 0.128198 0.034641 0.174150
v 0.128198 -0.000000 0.177562
v 0.128199 -0.034641 0.174150
v 0.128199 -0.067950 0.164046
v 0.128199 -0.098648 0.147637
v 0.128199 -0.125555 0.125555
v 0.128199 -0.147637 0.098648
v 0.128199 -0.164046 0.067950
v 0.128199 -0.174150 0.034641
v 0.128199 -0.177562 -0.000000
v 0.128199 -0.174150 -0.034641
v 0.128199 -0.164046 -0.067950
v 0.128199 -0.147637 -0.098648
v 0.128199 -0.125555 -0.125555
v 0.128199 -0.098648 -0.147637
v 0.128199 -0.067950 -0.164046
v 0.128199 -0.034641 -0.174150
v -0.131075 -0.000000 -1.000000
v -0.131075 0.195090 -0.980785
v -0.131075 0.382683 -0.923880
v -0.131074 0.555570 -0.831470
v -0.131074 0.707107 -0.707107
v -0.131074 0.831470 -0.555570
v -0.131074 0.923880 -0.382683
v -0.131074 0.980785 -0.195090
v -0.131074 1.000000 0.000000
v -0.131074 0.980785 0.195090
v -0.131074 0.923880 0.382683
v -0.131074 0.831470 0.555570
v -0.131074 0.707107 0.707107
v -0.131074 0.555570 0.831470
v -0.131075 0.382683 0.923880
v -0.131075 0.195090 0.980785
v -0.131075 -0.000000 1.000000
v -0.131075 -0.195090 0.980785
v -0.131075 -0.382683 0.923880
v -0.131075 -0.555570 0.831470
v -0.131075 -0.707107 0.707107
v -0.131075 -0.831470 0.555570
v -0.131075 -0.923880 0.382683
v -0.131075 -0.980785 0.195090
v -0.131075 -1.000000 0.000000
v -0.131075 -0.980785 -0.195090
v -0.131075 -0.923880 -0.382683
v -0.131075 -0.831470 -0.555570
v -0.131075 -0.707107 -0.707107
v -0.131075 -0.555570 -0.831470
v -0.131075 -0.382683 -0.923880
v -0.131075 -0.195090 -0.980785
v -0.131075 -0.000000 -0.848423
v -0.131075 0.165519 -0.832121
v -0.131075 0.324678 -0.783841
v -0.131075 0.471359 -0.705438
v -0.131075 0.599926 -0.599926
v -0.131075 0.705438 -0.471359
v -0.131075 0.783841 -0.324678
v -0.131075 0.832121 -0.165519
v -0.131075 0.848423 -0.000000
v -0.131075 0.832121 0.165519
v -0.131075 0.783841 0.324678
v -0.131075 0.705438 0.471359
v -0.131075 0.599926 0.599926
v -0.131075 0.471359 0.705438
v -0.131075 0.324678 0.783841
v -0.131075 0.165519 0.832121
v -0.131075 -0.000000 0.848423
v -0.131075 -0.165519 0.832121
v -0.131075 -0.324678 0.783841
v -0.131075 -0.471359 0.705438
v -0.131075 -0.599926 0.599926
v -0.131075 -0.705438 0.471359
v -0.131075 -0.783841 0.324678
v -0.131075 -0.832121 0.165519
v -0.131075 -0.848423 -0.000000
v -0.131075 -0.832121 -0.165519
v -0.131075 -0.783841 -0.324678
v -0.131075 -0.705438 -0.471359
v -0.131075 -0.599926 -0.599926
v -0.131075 -0.471359 -0.705438
v -0.131075 -0.324678 -0.783841
v -0.131075 -0.165519 -0.832121
v -0.041737 -0.000000 -0.848423
v -0.041737 0.165519 -0.832121
v -0.041737 0.324678 -0.783841
v -0.041737 0.471359 -0.705438
v -0.041737 0.599926 -0.599926
v -0.041737 0.705438 -0.471359
v -0.041737 0.783841 -0.324678
v -0.041737 0.832121 -0.165519
v -0.041737 0.848423 -0.000000
v -0.041737 0.832121 0.165519
v -0.041737 0.783841 0.324678
v -0.041737 0.705438 0.471359
v -0.041737 0.599926 0.599926
v -0.041737 0.471359 0.705438
v -0.041737 0.324678 0.783841
v -0.041737 0.165519 0.832121
v -0.041737 -0.000000 0.848423
v -0.041737 -0.165519 0.832121
v -0.041737 -0.324678 0.783841
v -0.041737 -0.471359 0.705438
v -0.041737 -0.599926 0.599926
v -0.041737 -0.705438 0.471359
v -0.041737 -0.783841 0.324678
v -0.041737 -0.832121 0.165519
v -0.041737 -0.848423 -0.000000
v -0.041737 -0.832121 -0.165519
v -0.041737 -0.783841 -0.324678
v -0.041737 -0.705438 -0.471359
v -0.041737 -0.599926 -0.599926
v -0.041737 -0.471359 -0.705438
v -0.041737 -0.324678 -0.783841
v -0.041737 -0.165519 -0.832121
v -0.128198 -0.000000 -0.177562
v -0.128198 0.034641 -0.174150
v -0.128198 0.067950 -0.164046
v -0.128198 0.098648 -0.147637
v -0.128198 0.125555 -0.125555
v -0.128198 0.147637 -0.098648
v -0.128198 0.164046 -0.067950
v -0.128198 0.174150 -0.034641
v -0.128198 0.177562 -0.000000
v -0.128198 0.174150 0.034641
v -0.128198 0.164046 0.067950
v -0.128198 0.147637 0.098648
v -0.128198 0.125555 0.125555
v -0.128198 0.098648 0.147637
v -0.128198 0.067950 0.164046
v -0.128198 0.034641 0.174150
v -0.128198 -0.000000 0.177562
v -0.128199 -0.034641 0.174150
v -0.128199 -0.067950 0.164046
v -0.128199 -0.098648 0.147637
v -0.128199 -0.125555 0.125555
v -0.128199 -0.147637 0.098648
v -0.128199 -0.164046 0.067950
v -0.128199 -0.174150 0.034641
v -0.128199 -0.177562 -0.000000
v -0.128199 -0.174150 -0.034641
v -0.128199 -0.164046 -0.067950
v -0.128199 -0.147637 -0.098648
v -0.128199 -0.125555 -0.125555
v -0.128199 -0.098648 -0.147637
v -0.128199 -0.067950 -0.164046
v -0.128199 -0.034641 -0.174150
vn -0.0000 -0.8315 -0.5556
vn -0.0000 -0.9239 -0.3827
vn -0.0000 0.3827 0.9239
vn -0.0000 0.5556 0.8315
vn -0.0000 0.1951 -0.9808
vn -0.0000 -0.0000 -1.0000
vn -0.0000 -0.7071 -0.7071
vn -0.0000 0.1951 0.9808
vn -0.0000 0.3827 -0.9239
vn -0.0000 -0.5556 -0.8315
vn -0.0000 -0.0000 1.0000
vn -0.0000 0.5556 -0.8315
vn -0.0000 -0.3827 -0.9239
vn -0.0000 -0.1951 0.9808
vn -0.0000 0.7071 -0.7071
vn -0.0000 -0.1951 -0.9808
vn -0.0000 -0.3827 0.9239
vn -0.0000 0.8315 -0.5556
vn -0.0000 -0.5556 0.8315
vn -0.0000 0.9239 -0.3827
vn -0.0000 -0.7071 0.7071
vn -0.0000 0.9808 -0.1951
vn -0.0000 -0.8315 0.5556
vn -0.0000 1.0000 -0.0000
vn -0.0000 -0.9239 0.3827
vn -0.0000 0.9808 0.1951
vn -0.0000 -0.9808 0.1951
vn -0.0000 0.9239 0.3827
vn -0.0000 -1.0000 -0.0000
vn -0.0000 0.8315 0.5556
vn -0.0000 -0.9808 -0.1951
vn -0.0000 0.7071 0.7071
vn 1.0000 -0.0000 -0.0000
vn 0.9918 0.1181 0.0489
vn 0.9918 0.1254 0.0249
vn 0.9918 -0.1278 -0.0000
vn 0.9918 -0.1254 0.0249
vn 0.9918 0.1063 0.0710
vn 0.9918 -0.1254 -0.0249
vn 0.9918 0.0904 0.0904
vn 0.9918 -0.1181 -0.0489
vn 0.9918 0.0710 0.1063
vn 0.9918 -0.1063 -0.0710
vn 0.9918 0.0489 0.1181
vn 0.9918 0.0249 -0.1254
vn 0.9918 -0.0000 -0.1278
vn 0.9918 -0.0904 -0.0904
vn 0.9918 0.0249 0.1254
vn 0.9918 0.0489 -0.1181
vn 0.9918 -0.0710 -0.1063
vn 0.9918 -0.0000 0.1278
vn 0.9918 0.0710 -0.1063
vn 0.9918 -0.0489 -0.1181
vn 0.9918 -0.0249 0.1254
vn 0.9918 0.0904 -0.0904
vn 0.9918 -0.0249 -0.1254
vn 0.9918 -0.0489 0.1181
vn 0.9918 0.1063 -0.0710
vn 0.9918 -0.0710 0.1063
vn 0.9918 0.1181 -0.0489
vn 0.9918 -0.0904 0.0904
vn 0.9918 0.1254 -0.0249
vn 0.9918 -0.1063 0.0710
vn 0.9918 0.1278 -0.0000
vn 0.9918 -0.1181 0.0489
vn -1.0000 -0.0000 -0.0000
vn -0.9918 0.1181 0.0489
vn -0.9918 0.1254 0.0249
vn -0.9918 -0.1278 -0.0000
vn -0.9918 -0.1254 0.0249
vn -0.9918 0.1063 0.0710
vn -0.9918 -0.1254 -0.0249
vn -0.9918 0.0904 0.0904
vn -0.9918 -0.1181 -0.0489
vn -0.9918 0.0710 0.1063
vn -0.9918 -0.1063 -0.0710
vn -0.9918 0.0489 0.1181
vn -0.9918 0.0249 -0.1254
vn -0.9918 -0.0000 -0.1278
vn -0.9918 -0.0904 -0.0904
vn -0.9918 0.0249 0.1254
vn -0.9918 0.0489 -0.1181
vn -0.9918 -0.0710 -0.1063
vn -0.9918 -0.0000 0.1278
vn -0.9918 0.0710 -0.1063
vn -0.9918 -0.0489 -0.1181
vn -0.9918 -0.0249 0.1254
vn -0.9918 0.0904 -0.0904
vn -0.9918 -0.0249 -0.1254
vn -0.9918 -0.0489 0.1181
vn -0.9918 0.1063 -0.0710
vn -0.9918 -0.0710 0.1063
vn -0.9918 0.1181 -0.0489
vn -0.9918 -0.0904 0.0904
vn -0.9918 0.1254 -0.0249
vn -0.9918 -0.1063 0.0710
vn -0.9918 0.1278 -0.0000
vn -0.9918 -0.1181 0.0489
vt 0.739852 0.422689
vt 0.768885 0.422689
vt 0.768885 0.368388
vt 0.739852 0.368388
vt 0.710820 0.160817
vt 0.739852 0.160817
vt 0.739852 0.100481
vt 0.710820 0.100481
vt 0.739852 0.693739
vt 0.710820 0.693739
vt 0.710820 0.759047
vt 0.739852 0.759047
vt 0.739852 0.468869
vt 0.768885 0.468869
vt 0.710820 0.224870
vt 0.739852 0.224870
vt 0.739852 0.629686
vt 0.710820 0.629686
vt 0.739852 0.937737
vt 0.710820 0.937737
vt 0.710820 0.983917
vt 0.739852 0.983917
vt 0.710820 0.290178
vt 0.739852 0.290178
vt 0.739852 0.569350
vt 0.710820 0.569350
vt 0.739852 0.883436
vt 0.710820 0.883436
vt 0.710820 0.354231
vt 0.739852 0.354231
vt 0.739852 0.515048
vt 0.710820 0.515048
vt 0.739852 0.823100
vt 0.710820 0.823100
vt 0.710820 0.414567
vt 0.739852 0.414567
vt 0.768885 0.837256
vt 0.739852 0.837256
vt 0.739852 0.891558
vt 0.768885 0.891558
vt 0.710820 0.468869
vt 0.739852 0.468869
vt 0.768885 0.776920
vt 0.739852 0.776920
vt 0.710820 0.515048
vt 0.739852 0.515048
vt 0.768885 0.712867
vt 0.739852 0.712867
vt 0.739852 0.054301
vt 0.768885 0.054301
vt 0.768885 0.000000
vt 0.739852 0.000000
vt 0.768885 0.647559
vt 0.739852 0.647559
vt 0.739852 0.114638
vt 0.768885 0.114638
vt 0.768885 0.583506
vt 0.739852 0.583506
vt 0.739852 0.178691
vt 0.768885 0.178691
vt 0.768885 0.523170
vt 0.739852 0.523170
vt 0.739852 0.243998
vt 0.768885 0.243998
vt 0.768885 0.468869
vt 0.739852 0.468869
vt 0.739852 0.308051
vt 0.768885 0.308051
vt 0.710820 0.046180
vt 0.739852 0.046180
vt 0.739852 0.000000
vt 0.710820 -0.000000
vt 0.328991 0.005360
vt 0.326797 0.080336
vt 0.350884 0.101012
vt 0.357382 0.029730
vt 0.384125 0.953609
vt 0.373574 0.884853
vt 0.350884 0.912457
vt 0.357382 0.986146
vt 0.244911 0.927829
vt 0.255462 0.862980
vt 0.235041 0.813023
vt 0.220842 0.868946
vt 0.300044 -0.000000
vt 0.302238 0.075788
vt 0.408193 0.903641
vt 0.393994 0.842458
vt 0.271654 0.970270
vt 0.278151 0.898988
vt 0.271654 0.013854
vt 0.278151 0.087543
vt 0.428661 0.838160
vt 0.411360 0.786903
vt 0.300044 0.994639
vt 0.302238 0.919664
vt 0.244911 0.046391
vt 0.255462 0.115147
vt 0.444743 0.759685
vt 0.425004 0.720323
vt 0.328991 1.000000
vt 0.326797 0.924212
vt 0.220842 0.096359
vt 0.235041 0.157542
vt 0.455821 0.671230
vt 0.434402 0.645275
vt 0.200374 0.161839
vt 0.217676 0.213097
vt 0.461468 0.576195
vt 0.439194 0.564645
vt 0.184292 0.240315
vt 0.204031 0.279677
vt 0.461468 0.478231
vt 0.439194 0.481531
vt 0.173215 0.328770
vt 0.194633 0.354724
vt 0.455821 0.381104
vt 0.434402 0.399126
vt 0.167568 0.423805
vt 0.189842 0.435355
vt 0.444743 0.288546
vt 0.425004 0.320598
vt 0.167568 0.521769
vt 0.189842 0.518469
vt 0.428661 0.204115
vt 0.411360 0.248964
vt 0.173215 0.618896
vt 0.194633 0.600874
vt 0.408193 0.131054
vt 0.393994 0.186977
vt 0.184292 0.711453
vt 0.204031 0.679402
vt 0.384125 0.072171
vt 0.373574 0.137020
vt 0.200374 0.795885
vt 0.217676 0.751036
vt 0.788673 0.246194
vt 0.768885 0.246194
vt 0.768885 0.300538
vt 0.788673 0.300538
vt 0.788673 0.443870
vt 0.808461 0.443870
vt 0.808461 0.397799
vt 0.788673 0.397799
vt 0.788673 0.190785
vt 0.768885 0.190785
vt 0.788673 0.495061
vt 0.808461 0.495061
vt 0.788673 0.136441
vt 0.768885 0.136441
vt 0.788673 0.549404
vt 0.808461 0.549404
vt 0.788673 0.085250
vt 0.768885 0.085250
vt 0.788673 0.604813
vt 0.808461 0.604813
vt 0.788673 0.039180
vt 0.768885 0.039180
vt 0.788673 0.659157
vt 0.808461 0.659157
vt 0.788673 0.000000
vt 0.788673 0.710348
vt 0.808461 0.710348
vt 0.788673 0.039180
vt 0.808461 0.039180
vt 0.808461 0.000000
vt 0.788673 0.000000
vt 0.788673 0.756418
vt 0.808461 0.756418
vt 0.788673 0.085250
vt 0.808461 0.085250
vt 0.788673 0.534240
vt 0.768885 0.534240
vt 0.768885 0.588584
vt 0.788673 0.588584
vt 0.788673 0.795598
vt 0.768885 0.795598
vt 0.768885 0.834778
vt 0.788673 0.834778
vt 0.788673 0.136441
vt 0.808461 0.136441
vt 0.788673 0.483049
vt 0.768885 0.483049
vt 0.788673 0.749528
vt 0.768885 0.749528
vt 0.788673 0.190785
vt 0.808461 0.190785
vt 0.788673 0.436979
vt 0.768885 0.436979
vt 0.788673 0.698337
vt 0.768885 0.698337
vt 0.808461 0.246194
vt 0.768885 0.397799
vt 0.788673 0.643993
vt 0.768885 0.643993
vt 0.808461 0.300538
vt 0.788673 0.351729
vt 0.768885 0.351729
vt 0.808461 0.351729
vt 0.696630 0.244810
vt 0.609267 0.386666
vt 0.611234 0.403100
vt 0.706029 0.323338
vt 0.461468 0.442681
vt 0.560051 0.428077
vt 0.560051 0.410682
vt 0.461468 0.359566
vt 0.682986 0.173176
vt 0.606411 0.371674
vt 0.466259 0.525086
vt 0.561054 0.445323
vt 0.665620 0.111189
vt 0.602777 0.358701
vt 0.475658 0.603614
vt 0.563021 0.461758
vt 0.645200 0.061232
vt 0.598503 0.348246
vt 0.489302 0.675248
vt 0.565876 0.476750
vt 0.622511 0.025223
vt 0.593755 0.340710
vt 0.622511 0.836669
vt 0.593755 0.510532
vt 0.588714 0.512992
vt 0.598423 0.848423
vt 0.506668 0.737234
vt 0.569511 0.489722
vt 0.598423 0.004548
vt 0.588714 0.336383
vt 0.645200 0.809064
vt 0.598503 0.504755
vt 0.527088 0.787192
vt 0.573784 0.500178
vt 0.573864 -0.000000
vt 0.583574 0.335431
vt 0.665620 0.766670
vt 0.602777 0.495883
vt 0.549777 0.823200
vt 0.578533 0.507714
vt 0.549777 0.011754
vt 0.578533 0.337891
vt 0.682986 0.711115
vt 0.606411 0.484256
vt 0.573864 0.843875
vt 0.583574 0.512041
vt 0.527088 0.039359
vt 0.573784 0.343668
vt 0.696630 0.644534
vt 0.609267 0.470322
vt 0.506668 0.081753
vt 0.569511 0.352541
vt 0.706029 0.569487
vt 0.611234 0.454616
vt 0.489302 0.137308
vt 0.565876 0.364167
vt 0.710820 0.488857
vt 0.612237 0.437741
vt 0.475658 0.203889
vt 0.563021 0.378102
vt 0.710820 0.405742
vt 0.612237 0.420346
vt 0.466259 0.278936
vt 0.561054 0.393808
s 1
usemtl Gold
f 28/1/1 60/2/1 59/3/2 27/4/2
f 15/5/3 47/6/3 46/7/4 14/8/4
f 2/9/5 34/10/5 33/11/6 1/12/6
f 29/13/7 61/14/7 60/2/1 28/1/1
f 16/15/8 48/16/8 47/6/3 15/5/3
f 3/17/9 35/18/9 34/10/5 2/9/5
f 30/19/10 62/20/10 61/21/7 29/22/7
f 17/23/11 49/24/11 48/16/8 16/15/8
f 4/25/12 36/26/12 35/18/9 3/17/9
f 31/27/13 63/28/13 62/20/10 30/19/10
f 18/29/14 50/30/14 49/24/11 17/23/11
f 5/31/15 37/32/15 36/26/12 4/25/12
f 32/33/16 64/34/16 63/28/13 31/27/13
f 19/35/17 51/36/17 50/30/14 18/29/14
f 6/37/18 38/38/18 37/39/15 5/40/15
f 1/12/6 33/11/6 64/34/16 32/33/16
f 20/41/19 52/42/19 51/36/17 19/35/17
f 7/43/20 39/44/20 38/38/18 6/37/18
f 21/45/21 53/46/21 52/42/19 20/41/19
f 8/47/22 40/48/22 39/44/20 7/43/20
f 22/49/23 54/50/23 53/51/21 21/52/21
f 9/53/24 41/54/24 40/48/22 8/47/22
f 23/55/25 55/56/25 54/50/23 22/49/23
f 10/57/26 42/58/26 41/54/24 9/53/24
f 24/59/27 56/60/27 55/56/25 23/55/25
f 11/61/28 43/62/28 42/58/26 10/57/26
f 25/63/29 57/64/29 56/60/27 24/59/27
f 12/65/30 44/66/30 43/62/28 11/61/28
f 26/67/31 58/68/31 57/64/29 25/63/29
f 13/69/32 45/70/32 44/71/30 12/72/30
f 27/4/2 59/3/2 58/68/31 26/67/31
f 14/8/4 46/7/4 45/70/32 13/69/32
f 48/73/33 80/74/33 79/75/33 47/76/33
f 35/77/33 67/78/33 66/79/33 34/80/33
f 62/81/33 94/82/33 93/83/33 61/84/33
f 49/85/33 81/86/33 80/74/33 48/73/33
f 36/87/33 68/88/33 67/78/33 35/77/33
f 63/89/33 95/90/33 94/82/33 62/81/33
f 50/91/33 82/92/33 81/86/33 49/85/33
f 37/93/33 69/94/33 68/88/33 36/87/33
f 64/95/33 96/96/33 95/90/33 63/89/33
f 51/97/33 83/98/33 82/92/33 50/91/33
f 38/99/33 70/100/33 69/94/33 37/93/33
f 33/101/33 65/102/33 96/96/33 64/95/33
f 52/103/33 84/104/33 83/98/33 51/97/33
f 39/105/33 71/106/33 70/100/33 38/99/33
f 53/107/33 85/108/33 84/104/33 52/103/33
f 40/109/33 72/110/33 71/106/33 39/105/33
f 54/111/33 86/112/33 85/108/33 53/107/33
f 41/113/33 73/114/33 72/110/33 40/109/33
f 55/115/33 87/116/33 86/112/33 54/111/33
f 42/117/33 74/118/33 73/114/33 41/113/33
f 56/119/33 88/120/33 87/116/33 55/115/33
f 43/121/33 75/122/33 74/118/33 42/117/33
f 57/123/33 89/124/33 88/120/33 56/119/33
f 44/125/33 76/126/33 75/122/33 43/121/33
f 58/127/33 90/128/33 89/124/33 57/123/33
f 45/129/33 77/130/33 76/126/33 44/125/33
f 59/131/33 91/132/33 90/128/33 58/127/33
f 46/133/33 78/134/33 77/130/33 45/129/33
f 60/135/33 92/136/33 91/132/33 59/131/33
f 47/76/33 79/75/33 78/134/33 46/133/33
f 34/80/33 66/79/33 65/102/33 33/101/33
f 61/84/33 93/83/33 92/136/33 60/135/33
f 72/137/27 104/138/27 103/139/25 71/140/25
f 86/141/18 118/142/18 117/143/15 85/144/15
f 73/145/29 105/146/29 104/138/27 72/137/27
f 87/147/20 119/148/20 118/142/18 86/141/18
f 74/149/31 106/150/31 105/146/29 73/145/29
f 88/151/22 120/152/22 119/148/20 87/147/20
f 75/153/2 107/154/2 106/150/31 74/149/31
f 89/155/24 121/156/24 120/152/22 88/151/22
f 76/157/1 108/158/1 107/154/2 75/153/2
f 90/159/26 122/160/26 121/156/24 89/155/24
f 77/161/7 109/51/7 108/158/1 76/157/1
f 91/162/28 123/163/28 122/160/26 90/159/26
f 78/164/10 110/165/10 109/166/7 77/167/7
f 92/168/30 124/169/30 123/163/28 91/162/28
f 79/170/13 111/171/13 110/165/10 78/164/10
f 66/172/14 98/173/14 97/174/11 65/175/11
f 93/176/32 125/177/32 124/178/30 92/179/30
f 80/180/16 112/181/16 111/171/13 79/170/13
f 67/182/17 99/183/17 98/173/14 66/172/14
f 94/184/4 126/185/4 125/177/32 93/176/32
f 81/186/6 113/187/6 112/181/16 80/180/16
f 68/188/19 100/189/19 99/183/17 67/182/17
f 95/190/3 127/191/3 126/185/4 94/184/4
f 82/137/5 114/192/5 113/187/6 81/186/6
f 69/144/21 101/193/21 100/189/19 68/188/19
f 96/194/8 128/195/8 127/191/3 95/190/3
f 83/140/9 115/196/9 114/192/5 82/137/5
f 70/197/23 102/198/23 101/193/21 69/144/21
f 65/175/11 97/174/11 128/195/8 96/194/8
f 84/197/12 116/199/12 115/196/9 83/140/9
f 71/140/25 103/139/25 102/198/23 70/197/23
f 85/144/15 117/143/15 116/199/12 84/197/12
f 107/200/34 139/201/34 138/202/35 106/203/35
f 121/204/36 153/205/36 152/206/37 120/207/37
f 108/208/38 140/209/38 139/201/34 107/200/34
f 122/210/39 154/211/39 153/205/36 121/204/36
f 109/212/40 141/213/40 140/209/38 108/208/38
f 123/214/41 155/215/41 154/211/39 122/210/39
f 110/216/42 142/217/42 141/213/40 109/212/40
f 124/218/43 156/219/43 155/215/41 123/214/41
f 111/220/44 143/221/44 142/217/42 110/216/42
f 98/222/45 130/223/45 129/224/46 97/225/46
f 125/226/47 157/227/47 156/219/43 124/218/43
f 112/228/48 144/229/48 143/221/44 111/220/44
f 99/230/49 131/231/49 130/223/45 98/222/45
f 126/232/50 158/233/50 157/227/47 125/226/47
f 113/234/51 145/235/51 144/229/48 112/228/48
f 100/236/52 132/237/52 131/231/49 99/230/49
f 127/238/53 159/239/53 158/233/50 126/232/50
f 114/240/54 146/241/54 145/235/51 113/234/51
f 101/242/55 133/243/55 132/237/52 100/236/52
f 128/244/56 160/245/56 159/239/53 127/238/53
f 115/246/57 147/247/57 146/241/54 114/240/54
f 102/248/58 134/249/58 133/243/55 101/242/55
f 97/225/46 129/224/46 160/245/56 128/244/56
f 116/250/59 148/251/59 147/247/57 115/246/57
f 103/252/60 135/253/60 134/249/58 102/248/58
f 117/254/61 149/255/61 148/251/59 116/250/59
f 104/256/62 136/257/62 135/253/60 103/252/60
f 118/258/63 150/259/63 149/255/61 117/254/61
f 105/260/64 137/261/64 136/257/62 104/256/62
f 119/262/65 151/263/65 150/259/63 118/258/63
f 106/203/35 138/202/35 137/261/64 105/260/64
f 120/207/37 152/206/37 151/263/65 119/262/65
f 130/223/33 131/231/33 132/237/33 133/243/33 134/249/33 135/253/33 136/257/33 137/261/33 138/202/33 139/201/33 140/209/33 141/213/33 142/217/33 143/221/33 144/229/33 145/235/33 146/241/33 147/247/33 148/251/33 149/255/33 150/259/33 151/263/33 152/206/33 153/205/33 154/211/33 155/215/33 156/219/33 157/227/33 158/233/33 159/239/33 160/245/33 129/224/33
f 28/1/1 27/4/2 187/3/2 188/2/1
f 15/5/3 14/8/4 174/7/4 175/6/3
f 2/9/5 1/12/6 161/11/6 162/10/5
f 29/13/7 28/1/1 188/2/1 189/14/7
f 16/15/8 15/5/3 175/6/3 176/16/8
f 3/17/9 2/9/5 162/10/5 163/18/9
f 30/19/10 29/22/7 189/21/7 190/20/10
f 17/23/11 16/15/8 176/16/8 177/24/11
f 4/25/12 3/17/9 163/18/9 164/26/12
f 31/27/13 30/19/10 190/20/10 191/28/13
f 18/29/14 17/23/11 177/24/11 178/30/14
f 5/31/15 4/25/12 164/26/12 165/32/15
f 32/33/16 31/27/13 191/28/13 192/34/16
f 19/35/17 18/29/14 178/30/14 179/36/17
f 6/37/18 5/40/15 165/39/15 166/38/18
f 1/12/6 32/33/16 192/34/16 161/11/6
f 20/41/19 19/35/17 179/36/17 180/42/19
f 7/43/20 6/37/18 166/38/18 167/44/20
f 21/45/21 20/41/19 180/42/19 181/46/21
f 8/47/22 7/43/20 167/44/20 168/48/22
f 22/49/23 21/52/21 181/51/21 182/50/23
f 9/53/24 8/47/22 168/48/22 169/54/24
f 23/55/25 22/49/23 182/50/23 183/56/25
f 10/57/26 9/53/24 169/54/24 170/58/26
f 24/59/27 23/55/25 183/56/25 184/60/27
f 11/61/28 10/57/26 170/58/26 171/62/28
f 25/63/29 24/59/27 184/60/27 185/64/29
f 12/65/30 11/61/28 171/62/28 172/66/30
f 26/67/31 25/63/29 185/64/29 186/68/31
f 13/69/32 12/72/30 172/71/30 173/70/32
f 27/4/2 26/67/31 186/68/31 187/3/2
f 14/8/4 13/69/32 173/70/32 174/7/4
f 176/73/66 175/76/66 207/75/66 208/74/66
f 163/77/66 162/80/66 194/79/66 195/78/66
f 190/81/66 189/84/66 221/83/66 222/82/66
f 177/85/66 176/73/66 208/74/66 209/86/66
f 164/87/66 163/77/66 195/78/66 196/88/66
f 191/89/66 190/81/66 222/82/66 223/90/66
f 178/91/66 177/85/66 209/86/66 210/92/66
f 165/93/66 164/87/66 196/88/66 197/94/66
f 192/95/66 191/89/66 223/90/66 224/96/66
f 179/97/66 178/91/66 210/92/66 211/98/66
f 166/99/66 165/93/66 197/94/66 198/100/66
f 161/101/66 192/95/66 224/96/66 193/102/66
f 180/103/66 179/97/66 211/98/66 212/104/66
f 167/105/66 166/99/66 198/100/66 199/106/66
f 181/107/66 180/103/66 212/104/66 213/108/66
f 168/109/66 167/105/66 199/106/66 200/110/66
f 182/111/66 181/107/66 213/108/66 214/112/66
f 169/113/66 168/109/66 200/110/66 201/114/66
f 183/115/66 182/111/66 214/112/66 215/116/66
f 170/117/66 169/113/66 201/114/66 202/118/66
f 184/119/66 183/115/66 215/116/66 216/120/66
f 171/121/66 170/117/66 202/118/66 203/122/66
f 185/123/66 184/119/66 216/120/66 217/124/66
f 172/125/66 171/121/66 203/122/66 204/126/66
f 186/127/66 185/123/66 217/124/66 218/128/66
f 173/129/66 172/125/66 204/126/66 205/130/66
f 187/131/66 186/127/66 218/128/66 219/132/66
f 174/133/66 173/129/66 205/130/66 206/134/66
f 188/135/66 187/131/66 219/132/66 220/136/66
f 175/76/66 174/133/66 206/134/66 207/75/66
f 162/80/66 161/101/66 193/102/66 194/79/66
f 189/84/66 188/135/66 220/136/66 221/83/66
f 200/137/27 199/140/25 231/139/25 232/138/27
f 214/141/18 213/144/15 245/143/15 246/142/18
f 201/145/29 200/137/27 232/138/27 233/146/29
f 215/147/20 214/141/18 246/142/18 247/148/20
f 202/149/31 201/145/29 233/146/29 234/150/31
f 216/151/22 215/147/20 247/148/20 248/152/22
f 203/153/2 202/149/31 234/150/31 235/154/2
f 217/155/24 216/151/22 248/152/22 249/156/24
f 204/157/1 203/153/2 235/154/2 236/158/1
f 218/159/26 217/155/24 249/156/24 250/160/26
f 205/161/7 204/157/1 236/158/1 237/51/7
f 219/162/28 218/159/26 250/160/26 251/163/28
f 206/164/10 205/167/7 237/166/7 238/165/10
f 220/168/30 219/162/28 251/163/28 252/169/30
f 207/170/13 206/164/10 238/165/10 239/171/13
f 194/172/14 193/175/11 225/174/11 226/173/14
f 221/176/32 220/179/30 252/178/30 253/177/32
f 208/180/16 207/170/13 239/171/13 240/181/16
f 195/182/17 194/172/14 226/173/14 227/183/17
f 222/184/4 221/176/32 253/177/32 254/185/4
f 209/186/6 208/180/16 240/181/16 241/187/6
f 196/188/19 195/182/17 227/183/17 228/189/19
f 223/190/3 222/184/4 254/185/4 255/191/3
f 210/137/5 209/186/6 241/187/6 242/192/5
f 197/144/21 196/188/19 228/189/19 229/193/21
f 224/194/8 223/190/3 255/191/3 256/195/8
f 211/140/9 210/137/5 242/192/5 243/196/9
f 198/197/23 197/144/21 229/193/21 230/198/23
f 193/175/11 224/194/8 256/195/8 225/174/11
f 212/197/12 211/140/9 243/196/9 244/199/12
f 199/140/25 198/197/23 230/198/23 231/139/25
f 213/144/15 212/197/12 244/199/12 245/143/15
f 235/200/67 234/203/68 266/202/68 267/201/67
f 249/204/69 248/207/70 280/206/70 281/205/69
f 236/208/71 235/200/67 267/201/67 268/209/71
f 250/210/72 249/204/69 281/205/69 282/211/72
f 237/212/73 236/208/71 268/209/71 269/213/73
f 251/214/74 250/210/72 282/211/72 283/215/74
f 238/216/75 237/212/73 269/213/73 270/217/75
f 252/218/76 251/214/74 283/215/74 284/219/76
f 239/220/77 238/216/75 270/217/75 271/221/77
f 226/222/78 225/225/79 257/224/79 258/223/78
f 253/226/80 252/218/76 284/219/76 285/227/80
f 240/228/81 239/220/77 271/221/77 272/229/81
f 227/230/82 226/222/78 258/223/78 259/231/82
f 254/232/83 253/226/80 285/227/80 286/233/83
f 241/234/84 240/228/81 272/229/81 273/235/84
f 228/236/85 227/230/82 259/231/82 260/237/85
f 255/238/86 254/232/83 286/233/83 287/239/86
f 242/240/87 241/234/84 273/235/84 274/241/87
f 229/242/88 228/236/85 260/237/85 261/243/88
f 256/244/89 255/238/86 287/239/86 288/245/89
f 243/246/90 242/240/87 274/241/87 275/247/90
f 230/248/91 229/242/88 261/243/88 262/249/91
f 225/225/79 256/244/89 288/245/89 257/224/79
f 244/250/92 243/246/90 275/247/90 276/251/92
f 231/252/93 230/248/91 262/249/91 263/253/93
f 245/254/94 244/250/92 276/251/92 277/255/94
f 232/256/95 231/252/93 263/253/93 264/257/95
f 246/258/96 245/254/94 277/255/94 278/259/96
f 233/260/97 232/256/95 264/257/95 265/261/97
f 247/262/98 246/258/96 278/259/96 279/263/98
f 234/203/68 233/260/97 265/261/97 266/202/68
f 248/207/70 247/262/98 279/263/98 280/206/70
f 258/223/66 257/224/66 288/245/66 287/239/66 286/233/66 285/227/66 284/219/66 283/215/66 282/211/66 281/205/66 280/206/66 279/263/66 278/259/66 277/255/66 276/251/66 275/247/66 274/241/66 273/235/66 272/229/66 271/221/66 270/217/66 269/213/66 268/209/66 267/201/66 266/202/66 265/261/66 264/257/66 263/253/66 262/249/66 261/243/66 260/237/66 259/231/66
